<!-- Aoede Platform Logo - Favicon -->
<svg xmlns="http://www.w3.org/2000/svg" viewBox="0 0 32 32" width="32" height="32">
    <defs>
        <linearGradient id="logoGradient" x1="0%" y1="0%" x2="100%" y2="100%">
            <stop offset="0%" style="stop-color:#2563eb;stop-opacity:1" />
            <stop offset="50%" style="stop-color:#7c3aed;stop-opacity:1" />
            <stop offset="100%" style="stop-color:#06b6d4;stop-opacity:1" />
        </linearGradient>
    </defs>
    
    <!-- Background circle -->
    <circle cx="16" cy="16" r="15" fill="url(#logoGradient)" />
    
    <!-- Code brackets -->
    <path d="M8 10 L6 12 L6 20 L8 22" stroke="white" stroke-width="2" fill="none" stroke-linecap="round" stroke-linejoin="round"/>
    <path d="M24 10 L26 12 L26 20 L24 22" stroke="white" stroke-width="2" fill="none" stroke-linecap="round" stroke-linejoin="round"/>
    
    <!-- AI Brain/Neural network nodes -->
    <circle cx="12" cy="14" r="1.5" fill="white" opacity="0.9"/>
    <circle cx="16" cy="12" r="1.5" fill="white" opacity="0.9"/>
    <circle cx="20" cy="14" r="1.5" fill="white" opacity="0.9"/>
    <circle cx="14" cy="18" r="1.5" fill="white" opacity="0.9"/>
    <circle cx="18" cy="18" r="1.5" fill="white" opacity="0.9"/>
    
    <!-- Neural connections -->
    <line x1="12" y1="14" x2="16" y2="12" stroke="white" stroke-width="1" opacity="0.6"/>
    <line x1="16" y1="12" x2="20" y2="14" stroke="white" stroke-width="1" opacity="0.6"/>
    <line x1="12" y1="14" x2="14" y2="18" stroke="white" stroke-width="1" opacity="0.6"/>
    <line x1="20" y1="14" x2="18" y2="18" stroke="white" stroke-width="1" opacity="0.6"/>
    <line x1="14" y1="18" x2="18" y2="18" stroke="white" stroke-width="1" opacity="0.6"/>
    <line x1="16" y1="12" x2="14" y2="18" stroke="white" stroke-width="1" opacity="0.4"/>
    <line x1="16" y1="12" x2="18" y2="18" stroke="white" stroke-width="1" opacity="0.4"/>
</svg>
